#!OML:ASF X:\für Bonn\!DataBase\2005_08_12_Daniel\c3d\Daniel.ASF
:FULLY-SPECIFIED
:DEGREES
16
root -42.0312 16.0559 -1.22365 576.901 90.5579 -1954.89
lowerback 41.7878 -2.25435 -1.03673
upperback 8.14375 -2.2748 -1.79466
thorax -10.8901 -0.507837 -0.502426
lowerneck -5.52369 -0.0399807 -7.14018
upperneck -10.2592 0.495311 0.370965
head -2.34091 0.629268 1.32905
rclavicle 1.82882e-014 -1.19271e-015
rhumerus -49.494 -9.09631 -77.843
rradius 19.2615
rwrist 3.96926
rhand -19.4627 12.8557
rfingers 7.12502
rthumb 6.85853 -17.0132
lclavicle 1.82882e-014 -1.19271e-015
lhumerus -50.4122 19.9264 76.5989
lradius 31.5313
lwrist 3.05263
lhand -10.1901 -10.5643
lfingers 7.12502
lthumb 15.8006 18.8109
rfemur -44.9866 -4.89321 21.8394
rtibia 71.4667
rfoot -27.9196 7.50927
rtoes -6.21551
lfemur -40.7477 -3.85663 -21.8695
ltibia 71.0343
lfoot -36.3278 4.51674
ltoes 11.3795
17
root -41.938 15.9611 -1.22871 575.505 90.5788 -1955.84
lowerback 41.9229 -2.28015 -0.947261
upperback 8.11158 -2.27614 -1.84206
thorax -10.9748 -0.507344 -0.598099
lowerneck -5.71317 -0.0592163 -6.9597
upperneck -10.3363 0.478085 0.274312
head -2.33009 0.621353 1.26565
rclavicle 4.53229e-014 4.65156e-014
rhumerus -47.402 -8.91711 -79.3095
rradius 20.0807
rwrist 2.16892
rhand -21.0049 13.3574
rfingers 7.12502
rthumb 5.36961 -16.5545
lclavicle 4.53229e-014 4.65156e-014
lhumerus -48.1066 19.6361 77.7245
lradius 31.9973
lwrist 3.89877
lhand -10.2062 -10.234
lfingers 7.12502
lthumb 15.7851 19.1424
rfemur -45.2668 -4.81879 21.7092
rtibia 73.2814
rfoot -27.7225 7.54274
rtoes -5.96169
lfemur -40.5954 -4.19958 -22.0053
ltibia 72.3946
lfoot -36.7066 4.94
ltoes 12.6333
18
root -41.84 15.8709 -1.23152 571.397 90.5562 -1959.51
lowerback 41.9964 -2.31495 -0.826831
upperback 8.07449 -2.2734 -1.85752
thorax -11.0457 -0.507718 -0.677395
lowerneck -5.97298 -0.0778915 -6.85655
upperneck -10.353 0.472922 0.213463
head -2.28862 0.619703 1.22717
rclavicle 1.66979e-014 -3.57812e-015
rhumerus -44.9577 -8.80333 -80.7051
rradius 20.5803
rwrist 0.673148
rhand -22.7114 14.1724
rfingers 7.12502
rthumb 3.72181 -15.7748
lclavicle 1.66979e-014 -3.57812e-015
lhumerus -45.6294 18.8307 79.1682
lradius 32.6648
lwrist 5.00074
lhand -10.2129 -9.65052
lfingers 7.12502
lthumb 15.7787 19.7264
rfemur -45.4477 -4.7326 21.6372
rtibia 74.9844
rfoot -27.627 7.53479
rtoes -5.9382
lfemur -40.4276 -4.46673 -22.0833
ltibia 73.7208
lfoot -37.0087 5.22868
ltoes 13.9877
19
root -41.739 15.7813 -1.23267 569.191 90.5481 -1961.31
lowerback 42.0287 -2.33611 -0.760135
upperback 8.02288 -2.27935 -1.86869
thorax -11.1182 -0.512509 -0.720554
lowerneck -6.33157 -0.0834071 -6.69997
upperneck -10.2745 0.489688 0.13546
head -2.19883 0.624162 1.17345
rclavicle 2.62396e-014 3.02153e-014
rhumerus -42.1657 -8.62932 -82.128
rradius 20.8088
rwrist -0.633967
rhand -24.3688 15.3078
rfingers 7.12502
rthumb 2.12114 -14.6614
lclavicle 2.62396e-014 3.02153e-014
lhumerus -43.0299 17.5332 80.7891
lradius 33.5188
lwrist 6.26301
lhand -10.3301 -8.90042
lfingers 7.12502
lthumb 15.6658 20.4854
rfemur -45.6041 -4.64316 21.5496
rtibia 76.5906
rfoot -27.4953 7.54265
rtoes -5.97867
lfemur -40.2718 -4.59794 -22.1868
ltibia 75.0159
lfoot -37.1694 5.43836
ltoes 15.2768
20
root -41.6344 15.6926 -1.23232 566.763 90.5405 -1963.36
lowerback 41.99 -2.35024 -0.686032
upperback 7.95524 -2.27716 -1.87158
thorax -11.187 -0.516201 -0.76238
lowerneck -6.70597 -0.0834763 -6.59022
upperneck -10.1392 0.518201 0.0983533
head -2.08934 0.633128 1.14131
rclavicle -3.97569e-016 3.97569e-016
rhumerus -39.4588 -7.69921 -83.9702
rradius 21.597
rwrist -2.63172
rhand -25.9897 16.2927
rfingers 7.12502
rthumb 0.555696 -13.6863
lclavicle -3.97569e-016 3.97569e-016
lhumerus -40.3803 16.0991 82.3426
lradius 34.4811
lwrist 7.35893
lhand -10.4871 -8.2149
lfingers 7.12502
lthumb 15.5146 21.1827
rfemur -45.7113 -4.51543 21.479
rtibia 78.097
rfoot -27.4939 7.47741
rtoes -6.39979
lfemur -40.1414 -4.65388 -22.2824
ltibia 76.2942
lfoot -37.1148 5.58524
ltoes 16.5623
21
root -41.5262 15.6103 -1.23044 562.35 90.5168 -1967.44
lowerback 41.8721 -2.36429 -0.565833
upperback 7.86422 -2.26248 -1.88133
thorax -11.2604 -0.518014 -0.841157
lowerneck -7.03311 -0.093953 -6.40237
upperneck -10.0047 0.520052 0.0160512
head -1.98682 0.626345 1.08133
rclavicle -1.78906e-014 -1.35174e-014
rhumerus -36.8562 -6.40316 -85.8966
rradius 22.8515
rwrist -4.74296
rhand -27.4848 17.1519
rfingers 7.12502
rthumb -0.888343 -12.826
lclavicle -1.78906e-014 -1.35174e-014
lhumerus -37.6699 14.4196 83.7875
lradius 35.5264
lwrist 8.39781
lhand -10.7674 -7.72691
lfingers 7.12502
lthumb 15.2445 21.6914
rfemur -45.7525 -4.3889 21.4459
rtibia 79.456
rfoot -27.5854 7.41607
rtoes -6.84318
lfemur -40.0001 -4.6301 -22.332
ltibia 77.523
lfoot -36.8619 5.61801
ltoes 17.7911
22
root -41.4155 15.5252 -1.22772 559.192 90.499 -1970.32
lowerback 41.4205 -2.37355 -0.447844
upperback 7.85632 -2.24199 -1.89904
thorax -11.1343 -0.520277 -0.933236
lowerneck -7.25829 -0.100253 -6.24127
upperneck -9.91193 0.520787 -0.026725
head -1.91639 0.619956 1.03926
rclavicle 1.63003e-014 -7.95139e-015
rhumerus -34.0632 -4.88959 -87.7561
rradius 24.2322
rwrist -6.6825
rhand -28.8238 17.9119
rfingers 7.12502
rthumb -2.18154 -12.0567
lclavicle 1.63003e-014 -7.95139e-015
lhumerus -34.8153 12.5079 85.1615
lradius 36.6134
lwrist 9.47818
lhand -11.2311 -7.34778
lfingers 7.12502
lthumb 14.7979 22.1039
rfemur -45.726 -4.25592 21.4036
rtibia 80.672
rfoot -27.7207 7.45129
rtoes -7.22361
lfemur -39.945 -4.52733 -22.3862
ltibia 78.7748
lfoot -36.5086 5.59779
ltoes 19.0585
23
root -41.3022 15.4414 -1.22462 554.789 90.4702 -1974.5
lowerback 40.6478 -2.39546 -0.315876
upperback 7.90029 -2.23482 -1.91491
thorax -10.8452 -0.532663 -1.02789
lowerneck -7.19939 -0.0762224 -6.09251
upperneck -9.94864 0.536086 -0.0841286
head -1.93709 0.624027 0.995414
rclavicle 9.54166e-015 -1.55052e-014
rhumerus -31.1591 -3.28775 -89.4325
rradius 25.7562
rwrist -8.16254
rhand -29.9941 18.6942
rfingers 7.12502
rthumb -3.31173 -11.2598
lclavicle 9.54166e-015 -1.55052e-014
lhumerus -31.8874 10.4722 86.3489
lradius 37.789
lwrist 10.5302
lhand -11.7345 -7.14453
lfingers 7.12502
lthumb 14.3129 22.3421
rfemur -45.7018 -4.13725 21.3907
rtibia 81.7609
rfoot -27.935 7.4517
rtoes -7.69437
lfemur -39.9731 -4.44302 -22.4029
ltibia 80.0187
lfoot -36.1331 5.50034
ltoes 20.2832
24
root -41.1855 15.3634 -1.2202 546.806 90.4088 -1982.3
lowerback 39.8308 -2.42239 -0.165119
upperback 7.92521 -2.22847 -1.90145
thorax -10.5574 -0.547238 -1.10119
lowerneck -7.03504 -0.051371 -5.99561
upperneck -10.0578 0.548915 -0.108228
head -2.00007 0.630041 0.971473
rclavicle -7.55382e-015 -7.55382e-015
rhumerus -28.2963 -1.49663 -90.9313
rradius 27.6787
rwrist -9.22375
rhand -30.9845 19.3064
rfingers 7.12502
rthumb -4.26817 -10.6306
lclavicle -7.55382e-015 -7.55382e-015
lhumerus -28.95 8.23781 87.3831
lradius 39.2128
lwrist 11.7322
lhand -12.2689 -6.99007
lfingers 7.12502
lthumb 13.7978 22.5323
rfemur -45.5991 -4.04927 21.4277
rtibia 82.7157
rfoot -28.2298 7.42604
rtoes -8.34207
lfemur -40.0332 -4.30918 -22.378
ltibia 81.2392
lfoot -35.8281 5.36122
ltoes 21.4931
25
root -41.0663 15.291 -1.21452 542.781 90.3342 -1986.14
lowerback 39.0538 -2.43893 -0.0272873
upperback 7.88609 -2.22663 -1.90714
thorax -10.3501 -0.564861 -1.18619
lowerneck -6.72 -0.0239388 -5.86038
upperneck -10.1781 0.549486 -0.131219
head -2.09185 0.627327 0.94149
rclavicle 1.82882e-014 4.45278e-014
rhumerus -25.3071 0.361925 -92.2269
rradius 29.4178
rwrist -9.6813
rhand -31.9002 20.1806
rfingers 7.12502
rthumb -5.15235 -9.73678
lclavicle 1.82882e-014 4.45278e-014
lhumerus -26.036 5.83239 88.1919
lradius 40.8816
lwrist 12.9755
lhand -12.7561 -6.73481
lfingers 7.12502
lthumb 13.3283 22.8189
rfemur -45.4328 -3.98761 21.4244
rtibia 83.5562
rfoot -28.5591 7.40237
rtoes -8.89202
lfemur -40.0312 -4.21403 -22.374
ltibia 82.3531
lfoot -35.5596 5.16191
ltoes 22.6626
26
root -40.9457 15.2232 -1.20721 531.188 90.2535 -1997.57
lowerback 38.3253 -2.46876 0.116013
upperback 7.79558 -2.24476 -1.89848
thorax -10.2114 -0.593076 -1.25009
lowerneck -6.36072 0.0148902 -5.77749
upperneck -10.2722 0.564958 -0.141605
head -2.18412 0.632168 0.924594
rclavicle 3.02153e-014 2.10712e-014
rhumerus -22.5287 2.4097 -93.3533
rradius 31.6903
rwrist -9.59791
rhand -32.7629 20.9357
rfingers 7.12502
rthumb -5.98534 -8.95974
lclavicle 3.02153e-014 2.10712e-014
lhumerus -22.9806 3.45202 88.7398
lradius 42.5786
lwrist 14.1794
lhand -13.0953 -6.5412
lfingers 7.12502
lthumb 13.0013 23.0337
rfemur -45.1842 -3.94947 21.465
rtibia 84.284
rfoot -28.8861 7.38381
rtoes -9.23584
lfemur -39.9819 -4.0993 -22.3353
ltibia 83.3582
lfoot -35.2882 5.01125
ltoes 23.6126
